<svg width="55" height="80" viewBox="0 0 55 80" fill="none" xmlns="http://www.w3.org/2000/svg">
<rect width="55" height="80" rx="8" fill="white"/>
<path d="M16.2263 50.995V44.2667H38.6538V50.995H16.2263ZM27.44 28.5114C28.0755 28.5114 28.6085 28.2961 29.0391 27.8655C29.4697 27.4349 29.6843 26.9026 29.6828 26.2687C29.6813 25.6347 29.4667 25.1025 29.0391 24.6719C28.6115 24.2412 28.0785 24.0259 27.44 24.0259C26.8016 24.0259 26.2693 24.2412 25.8432 24.6719C25.4171 25.1025 25.2018 25.6347 25.1973 26.2687C25.1928 26.9026 25.4081 27.4357 25.8432 27.8678C26.2783 28.2999 26.8106 28.5144 27.44 28.5114ZM16.4506 39.7812C16.8244 37.9123 17.619 36.2586 18.8346 34.8203C20.0502 33.3819 21.5356 32.3069 23.291 31.5952C22.8798 31.2962 22.515 30.9508 22.1965 30.5591C21.878 30.1673 21.6082 29.7278 21.3869 29.2403L11.7969 27.3901V25.1473L21.3846 23.297C21.9453 22.1757 22.7587 21.2599 23.8247 20.5497C24.8908 19.8395 26.0959 19.4844 27.44 19.4844C28.2998 19.4844 29.1221 19.6526 29.9071 19.989C30.692 20.3254 31.3835 20.7553 31.9816 21.2786L40.9526 19.5404V32.9969L31.9816 31.2588C31.9069 31.3336 31.8411 31.3896 31.7842 31.427C31.7274 31.4644 31.6624 31.5205 31.5891 31.5952C33.3459 32.3054 34.8224 33.3707 36.0186 34.7911C37.2147 36.2115 38.0183 37.8749 38.4295 39.7812H16.4506ZM20.7118 64.4515C19.4783 64.4515 18.4227 64.0126 17.545 63.135C16.6674 62.2573 16.2278 61.201 16.2263 59.966V55.4805H38.6538V59.966C38.6538 61.1995 38.215 62.2558 37.3373 63.135C36.4596 64.0141 35.4033 64.453 34.1683 64.4515H20.7118Z" fill="#303030"/>
</svg>
