<svg width="48" height="48" viewBox="0 0 48 48" fill="none" xmlns="http://www.w3.org/2000/svg">
<circle cx="24" cy="24" r="24" fill="white"/>
<path d="M27.4891 14.5814C28.9777 14.5814 30.2204 13.2977 30.2204 11.7907C30.2204 11.0506 29.9326 10.3407 29.4204 9.81738C28.9082 9.29402 28.2135 9 27.4891 9C25.9733 9 24.7579 10.2279 24.7579 11.7907C24.7579 13.2977 25.9733 14.5814 27.4891 14.5814ZM22.5593 33.9488L23.9249 27.8372L26.8063 30.6279V39H29.5376V28.5349L26.6561 25.7442L27.4891 21.5581C28.4249 22.6537 29.5793 23.5318 30.8748 24.1335C32.1703 24.7352 33.5769 25.0465 35 25.0465V22.2558C32.3917 22.2558 30.2204 20.8605 29.1142 18.8791L27.7486 16.6744C27.2024 15.8093 26.383 15.2791 25.4407 15.2791C25.0174 15.2791 24.7579 15.3907 24.3346 15.3907L17.2471 18.4605V25.0465H19.9783V20.2744L22.4227 19.2977L20.2377 30.6279L13.5462 29.2326L13 32.0233L22.5593 33.9488Z" fill="#303030"/>
</svg>
