<svg width="120" height="120" viewBox="0 0 120 120" fill="none" xmlns="http://www.w3.org/2000/svg">
<rect width="120" height="120" rx="60" fill="white"/>
<path d="M61.8525 69C61.8525 69 55.8525 77.5 61.8525 89C67.8348 100.466 63.3787 109.447 63.3525 109.5C63.356 109.473 64.343 101.478 58.8525 89C53.3525 76.5 61.8525 69 61.8525 69ZM50.4971 61C50.4971 61 44.4971 69.5 50.4971 81C56.4793 92.4662 52.0232 101.447 51.9971 101.5C52.0005 101.473 52.9875 93.4784 47.4971 81C41.9971 68.5 50.4971 61 50.4971 61ZM70.8525 61C70.8525 61 64.8525 69.5 70.8525 81C76.8348 92.4662 72.3787 101.448 72.3525 101.5C72.356 101.473 73.343 93.4784 67.8525 81C62.3525 68.5 70.8525 61 70.8525 61ZM87.001 39C87.0031 39.0267 88.4812 57.9998 61.001 58C33.501 58 34.001 39 34.001 39H87.001ZM93 38H28V31H93V38Z" fill="#303030"/>
</svg>
