<svg width="120" height="120" viewBox="0 0 120 120" fill="none" xmlns="http://www.w3.org/2000/svg">
<rect width="120" height="120" rx="60" fill="white"/>
<path d="M83.1791 78.4639C84.5314 79.7969 84.7579 80.5855 83.1791 82.1396L64.1303 92.5H57.7807L38.7308 82.1396C37.2092 80.8306 37.1994 79.9955 38.7308 78.4639L49.0912 74.7871C46.7518 86.5016 76.1617 85.9563 72.8197 74.7871L83.1791 78.4639ZM72.1508 71.4453C68.1404 77.4609 54.7729 78.4634 50.0941 71.4453L52.767 64.0938C57.7799 68.4382 64.1302 68.4381 68.809 64.0938L72.1508 71.4453ZM81.1742 32.0107C79.6194 35.4757 78.1831 37.0532 74.4906 39.0283C72.4623 46.0891 69.7088 48.3031 63.4613 49.7227C66.1945 52.8415 66.8998 54.7657 67.4721 58.4121C62.2679 61.328 59.5649 61.2023 54.7728 58.4121C55.3135 54.7751 56.1522 52.8816 58.4486 49.7227C51.6633 47.614 48.9732 45.2274 47.7543 39.0283C44.0302 36.7548 42.716 35.2518 41.4047 32.0107V28H81.1742V32.0107ZM67.9076 44.0176C62.4719 42.2838 58.8747 42.1225 53.6547 44.0176C52.4153 44.7426 53.3456 46.5541 54.2748 45.8301C57.8291 43.4812 65.938 45.1044 66.9779 45.8301C68.5266 46.5545 68.8366 44.3804 67.9076 44.0176ZM59.431 39.1348C56.0447 38.3856 53.8551 38.4792 50.7885 39.8877C50.0748 40.3865 50.7324 41.4191 51.2582 40.9375C53.2909 39.3461 58.2915 39.8878 58.9613 40.2666C59.9383 40.618 60.0131 39.3028 59.431 39.1348ZM71.4965 39.8633C68.2827 38.5599 66.1084 38.2869 62.85 39.1641C62.0631 39.5369 62.5394 40.6654 63.1381 40.2783C65.4077 39.0482 70.2478 40.4161 70.8451 40.9014C71.7499 41.4109 72.0429 40.1256 71.4965 39.8633Z" fill="#303030"/>
</svg>
