<svg width="120" height="120" viewBox="0 0 120 120" fill="none" xmlns="http://www.w3.org/2000/svg">
<rect width="120" height="120" rx="60" fill="white"/>
<path d="M41.4707 51.3779C49.5168 52.7107 54.8805 62.0389 52.8691 68.7021C52.8691 68.7021 56.892 67.3699 56.2217 63.3721C61.5859 68.7027 62.9277 75.3662 62.9277 79.3643C62.9275 88.6926 55.7232 94.0233 46.835 94.0234C37.9466 94.0234 30.7424 88.6926 30.7422 79.3643C30.7422 74.644 32.7539 70.0355 36.1064 67.3701C42.8116 62.0395 42.4282 56.7085 41.4707 51.3779ZM49.5166 70.0352C45.4936 70.7016 43.1466 76.0326 44.1523 79.3643C44.1523 79.3643 41.8055 78.0311 42.1406 76.0322C39.4587 78.6975 38.7881 82.0294 38.7881 84.0283C38.7882 88.6925 42.3908 91.3574 46.835 91.3574C51.279 91.3573 54.8808 88.6924 54.8809 84.0283C54.8809 81.667 53.8754 79.364 52.1992 78.0313C48.8466 75.3659 49.0365 72.7005 49.5166 70.0352ZM76.4326 26.6553C80.6961 25.5417 82.7354 25.5451 84.1406 29.0898L86.5752 37.2031C87.5147 40.178 87.0565 41.4926 83.3291 42.8818L76.0273 44.7666L76.4326 49.373C78.1157 50.0266 78.9463 50.5948 80.084 52.2119L85.7637 53.4287V47.3438C86.2656 45.1984 87.4068 45.1773 89.8203 45.7207V64.7871C87.0915 64.7463 85.8417 64.4851 85.7637 61.9473V55.8623L77.6504 54.6455C74.9681 54.9558 73.6575 54.8239 73.1875 51.8057V45.499L58.1777 49.373L41.5459 36.3916L76.4326 26.6553ZM53.7158 47.75L44.3857 50.1846L40.7344 40.4482L43.168 39.2314L53.7158 47.75Z" fill="#303030"/>
</svg>
