<svg width="120" height="120" viewBox="0 0 120 120" fill="none" xmlns="http://www.w3.org/2000/svg">
<rect width="120" height="120" rx="60" fill="white"/>
<path d="M81.248 34.7482C81.7197 34.6798 82.2005 34.7063 82.6621 34.8263C83.1235 34.9464 83.5574 35.1572 83.9385 35.4474C87.7668 38.3653 90.8738 42.1478 93.0137 46.4953C95.1535 50.8427 96.2676 55.6362 96.2676 60.4962C96.2676 65.3563 95.1535 70.1498 93.0137 74.4972C90.8738 78.8447 87.7668 82.6272 83.9385 85.5451C83.5574 85.8352 83.1235 86.0461 82.6621 86.1662C82.2005 86.2862 81.7197 86.3127 81.248 86.2443C80.7766 86.1759 80.3229 86.014 79.9131 85.7677C79.5031 85.5213 79.1443 85.1947 78.8584 84.8078C78.5726 84.4208 78.3643 83.9804 78.2461 83.5119C78.1279 83.0435 78.1017 82.5559 78.1689 82.0773C78.2363 81.5984 78.3969 81.1371 78.6396 80.7208C78.8824 80.3047 79.2029 79.9407 79.584 79.6505C82.511 77.4189 84.8864 74.5267 86.5225 71.2023C88.1585 67.8778 89.0107 64.2125 89.0107 60.4962C89.0107 56.7799 88.1585 53.1147 86.5225 49.7902C84.8864 46.4657 82.511 43.5735 79.584 41.3419C79.2029 41.0518 78.8824 40.6877 78.6396 40.2716C78.3969 39.8554 78.2363 39.3941 78.1689 38.9152C78.033 37.9483 78.2812 36.9661 78.8584 36.1847C79.4357 35.4032 80.2955 34.8864 81.248 34.7482ZM58.1729 34.7111C58.5213 34.707 58.8649 34.7944 59.168 34.965C59.4713 35.1349 59.7237 35.3825 59.8994 35.6808C60.075 35.979 60.1678 36.3179 60.168 36.6632V83.4982C60.168 83.8433 60.0756 84.1824 59.9004 84.4806C59.7251 84.7789 59.4729 85.0252 59.1699 85.1954C58.867 85.3657 58.524 85.4535 58.1758 85.4494C57.8275 85.4452 57.4863 85.3495 57.1875 85.172L37.9707 73.7404H30.6396C29.0734 73.7403 27.5713 73.1234 26.4639 72.0255C25.3565 70.9276 24.7344 69.4384 24.7344 67.8859V52.2628C24.7355 50.7111 25.3577 49.2231 26.4648 48.1261C27.5722 47.0291 29.0741 46.4123 30.6396 46.4122H37.9707L57.1836 34.9884C57.4826 34.8107 57.8243 34.7152 58.1729 34.7111ZM69.7832 46.0206C70.673 45.7039 71.6499 45.7511 72.5059 46.1525C75.128 47.4857 77.333 49.5334 78.874 52.0665C80.4151 54.5998 81.2314 57.5187 81.2314 60.4962C81.2314 63.4737 80.4151 66.3926 78.874 68.9259C77.333 71.459 75.128 73.5067 72.5059 74.84C72.0782 75.0741 71.6078 75.2184 71.124 75.2648C70.6405 75.3111 70.1526 75.2591 69.6895 75.1105C69.2263 74.9618 68.7972 74.7197 68.4277 74.3996C68.0582 74.0792 67.7554 73.6865 67.5381 73.2453C67.3208 72.804 67.1928 72.3225 67.1621 71.8302C67.1315 71.338 67.1987 70.8444 67.3594 70.379C67.5201 69.9136 67.7709 69.4853 68.0977 69.1203C68.4244 68.7552 68.8206 68.4609 69.2617 68.254C70.6825 67.5352 71.8774 66.4281 72.7129 65.0578C73.5484 63.6874 73.9912 62.1079 73.9912 60.4962C73.9912 58.8846 73.5484 57.3051 72.7129 55.9347C71.8774 54.5643 70.6825 53.4572 69.2617 52.7384C68.4319 52.2841 67.8087 51.5192 67.5244 50.6066C67.2403 49.694 67.3167 48.7048 67.7383 47.8488C68.1599 46.9927 68.8936 46.3374 69.7832 46.0206Z" fill="#303030"/>
</svg>
