<svg width="286" height="45" viewBox="0 0 286 45" fill="none" xmlns="http://www.w3.org/2000/svg">
<path d="M4.37207 45H0V0H4.37207V45ZM8.74023 45H6.55469V0H8.74023V45ZM14.5742 45H13.1172V0H14.5742V45ZM25.5059 45H23.3203V0H25.5059V45ZM32.0596 45H27.6875V0H32.0596V45ZM38.6152 45H36.4297V0H38.6152V45ZM51.0049 45H46.6328V0H51.0049V45ZM61.9326 45H55.375V0H61.9326V45ZM68.4902 45H66.3047V0H68.4902V45ZM72.1367 45H70.6797V0H72.1367V45ZM78.6924 45H74.3203V0H78.6924V45ZM85.248 45H83.0625V0H85.248V45ZM98.3643 45H93.9922V0H98.3643V45ZM108.568 45H106.383V0H108.568V45ZM112.936 45H110.75V0H112.936V45ZM119.498 45H117.312V0H119.498V45ZM129.696 45H123.867V0H129.696V45ZM138.442 45H134.07V0H138.442V45ZM142.811 45H140.625V0H142.811V45ZM155.927 45H151.555V0H155.927V45ZM161.756 45H159.57V0H161.756V45ZM168.317 45H163.945V0H168.317V45ZM179.248 45H177.062V0H179.248V45ZM185.803 45H183.617V0H185.803V45ZM191.63 45H187.258V0H191.63V45ZM202.558 45H196V0H202.558V45ZM209.115 45H206.93V0H209.115V45ZM213.49 45H211.305V0H213.49V45ZM219.317 45H214.945V0H219.317V45ZM225.881 45H223.695V0H225.881V45ZM238.989 45H234.617V0H238.989V45ZM249.193 45H247.008V0H249.193V45ZM253.561 45H251.375V0H253.561V45ZM260.123 45H257.938V0H260.123V45ZM272.511 45H268.867V0H272.511V45ZM279.068 45H276.883V0H279.068V45ZM285.622 0V45H281.25V0H285.622Z" fill="white"/>
</svg>
