<svg width="252" height="40" viewBox="0 0 252 40" fill="none" xmlns="http://www.w3.org/2000/svg">
<path d="M3.85713 0H0V39.7023H3.85713V0Z" fill="black"/>
<path d="M7.71763 0H5.78906V39.7023H7.71763V0Z" fill="black"/>
<path d="M12.856 0H11.5703V39.7023H12.856V0Z" fill="black"/>
<path d="M22.4989 0H20.5703V39.7023H22.4989V0Z" fill="black"/>
<path d="M28.2868 0H24.4297V39.7023H28.2868V0Z" fill="black"/>
<path d="M34.0692 0H32.1406V39.7023H34.0692V0Z" fill="black"/>
<path d="M44.9978 0H41.1406V39.7023H44.9978V0Z" fill="black"/>
<path d="M54.6451 0H48.8594V39.7023H54.6451V0Z" fill="black"/>
<path d="M60.4286 0H58.5V39.7023H60.4286V0Z" fill="black"/>
<path d="M63.6373 0H62.3516V39.7023H63.6373V0Z" fill="black"/>
<path d="M69.4274 0H65.5703V39.7023H69.4274V0Z" fill="black"/>
<path d="M75.2176 0H73.2891V39.7023H75.2176V0Z" fill="black"/>
<path d="M86.7868 0H82.9297V39.7023H86.7868V0Z" fill="black"/>
<path d="M95.7801 0H93.8516V39.7023H95.7801V0Z" fill="black"/>
<path d="M99.6473 0H97.7188V39.7023H99.6473V0Z" fill="black"/>
<path d="M105.429 0H103.5V39.7023H105.429V0Z" fill="black"/>
<path d="M114.424 0H109.281V39.7023H114.424V0Z" fill="black"/>
<path d="M122.146 0H118.289V39.7023H122.146V0Z" fill="black"/>
<path d="M125.999 0H124.07V39.7023H125.999V0Z" fill="black"/>
<path d="M137.568 0H133.711V39.7023H137.568V0Z" fill="black"/>
<path d="M142.71 0H140.781V39.7023H142.71V0Z" fill="black"/>
<path d="M148.498 0H144.641V39.7023H148.498V0Z" fill="black"/>
<path d="M158.14 0H156.211V39.7023H158.14V0Z" fill="black"/>
<path d="M163.929 0H162V39.7023H163.929V0Z" fill="black"/>
<path d="M169.068 0H165.211V39.7023H169.068V0Z" fill="black"/>
<path d="M178.715 0H172.93V39.7023H178.715V0Z" fill="black"/>
<path d="M184.499 0H182.57V39.7023H184.499V0Z" fill="black"/>
<path d="M188.358 0H186.43V39.7023H188.358V0Z" fill="black"/>
<path d="M193.498 0H189.641V39.7023H193.498V0Z" fill="black"/>
<path d="M199.288 0H197.359V39.7023H199.288V0Z" fill="black"/>
<path d="M210.857 0H207V39.7023H210.857V0Z" fill="black"/>
<path d="M219.858 0H217.93V39.7023H219.858V0Z" fill="black"/>
<path d="M223.71 0H221.781V39.7023H223.71V0Z" fill="black"/>
<path d="M229.499 0H227.57V39.7023H229.499V0Z" fill="black"/>
<path d="M240.425 0H237.211V39.7023H240.425V0Z" fill="black"/>
<path d="M246.218 0H244.289V39.7023H246.218V0Z" fill="black"/>
<path d="M251.998 0H248.141V39.7023H251.998V0Z" fill="black"/>
</svg>
