<svg width="297" height="801" viewBox="0 0 297 801" fill="none" xmlns="http://www.w3.org/2000/svg">
<path d="M-69.7628 0L-75.0312 5.26842V1287H372.032V5.26842L368.269 0.752632L361.495 5.26842L356.227 0.752632L350.958 5.26842L344.937 0.752632L338.916 5.26842L333.648 0.752632L327.627 5.26842L321.606 0.752632L315.585 5.26842L310.316 0.752632L304.295 5.26842L298.274 0.752632L293.006 5.26842L286.985 0.752632L281.716 5.26842L275.695 0.752632L269.674 5.26842L265.158 0.752632L258.385 5.26842L253.116 0.752632L246.342 5.26842L241.074 0.752632L235.053 5.26842L229.032 0.752632L223.763 5.26842L218.495 0.752632L212.474 5.26842L206.453 0.752632L200.432 5.26842L194.411 0.752632L188.39 5.26842L183.121 0.752632L177.853 5.26842L171.832 0.752632L165.811 5.26842L159.79 0.752632L153.769 5.26842L148.5 0.752632L142.479 5.26842L137.211 0.752632L131.19 5.26842L125.169 0.752632L119.9 5.26842L113.879 0.752632L108.611 5.26842L102.59 0.752632L96.5688 5.26842L90.5477 0.752632L84.5267 5.26842L79.2582 0.752632L73.9898 5.26842L67.9688 0.752632L61.9477 5.26842L55.9267 0.752632L49.9056 5.26842L44.6372 0.752632L38.6161 5.26842L33.3477 0.752632L27.3266 5.26842L21.3056 0.752632L15.2845 5.26842L10.0161 0L3.99507 5.26842L-1.27335 0.752632L-7.2944 5.26842L-12.5628 0L-19.3365 5.26842L-24.6049 0L-30.626 5.26842L-35.8944 0L-41.9155 5.26842L-47.1839 0L-53.2049 5.26842L-58.4734 0L-64.4944 5.26842L-69.7628 0Z" fill="white"/>
</svg>
