<svg width="382" height="140" viewBox="0 0 382 140" fill="none" xmlns="http://www.w3.org/2000/svg">
<rect width="382" height="140" rx="70" fill="white"/>
<path fill-rule="evenodd" clip-rule="evenodd" d="M249.714 99.2025V69.4511C249.714 50.3704 270.798 46.6305 279.766 57.4798C288.665 46.4457 309.94 50.69 309.94 69.4511V99.2025C309.94 99.4838 309.714 99.7119 309.435 99.7119H302.097C301.818 99.7119 301.591 99.4838 301.591 99.2025V68.989C301.591 57.0648 283.767 57.3213 283.767 68.989V99.2025C283.767 99.4838 283.539 99.7119 283.26 99.7119H283.222H276.432H276.268C275.989 99.7119 275.761 99.4838 275.761 99.2025V68.989C275.761 57.0648 258.166 57.3213 258.166 68.989V99.2025C258.166 99.4838 257.94 99.7119 257.66 99.7119H250.219C249.94 99.7119 249.714 99.4838 249.714 99.2025Z" fill="#0088FF"/>
<path fill-rule="evenodd" clip-rule="evenodd" d="M241.041 75.6093C241.041 75.6207 241.041 75.6321 241.039 75.6436V99.6632H232.562V93.9621C228.393 97.5171 223 99.6608 217.109 99.6608C203.893 99.6608 193.179 88.8697 193.179 75.558C193.179 62.2463 203.893 51.4551 217.109 51.4551C230.326 51.4551 241.041 62.2463 241.041 75.558C241.041 75.5751 241.041 75.5922 241.041 75.6093ZM217.016 91.3196C225.6 91.3196 232.559 84.3103 232.559 75.6639C232.559 67.0175 225.6 60.0081 217.016 60.0081C208.431 60.0081 201.472 67.0175 201.472 75.6639C201.472 84.3103 208.431 91.3196 217.016 91.3196Z" fill="#0088FF"/>
<path fill-rule="evenodd" clip-rule="evenodd" d="M186.263 78.9054C186.422 77.7667 186.505 76.6022 186.505 75.4176C186.505 62.1031 176.07 51.3096 163.199 51.3096C150.327 51.3096 139.893 62.1031 139.893 75.4176C139.893 85.5249 145.905 94.1793 154.433 97.7623C163.566 101.6 177.633 99.317 183.775 90.4852C183.809 90.436 183.843 90.3863 183.875 90.336L176.952 86.307C168.887 93.8802 152.816 93.4874 148.449 78.9054H186.263ZM178.212 70.5436H148.344C148.344 70.5436 150.441 59.7787 163.409 59.7787C176.377 59.7787 178.212 70.5436 178.212 70.5436Z" fill="#0088FF"/>
<path fill-rule="evenodd" clip-rule="evenodd" d="M109.849 51.4692C103.89 51.4692 98.4392 53.663 94.2502 57.2924V33.2373L85.915 33.2373V76.5367H85.9367C86.4394 89.4011 96.9527 99.675 109.849 99.675C123.065 99.675 133.779 88.8838 133.779 75.5721C133.779 62.2606 123.065 51.4692 109.849 51.4692ZM109.791 60.0141C101.206 60.0141 94.2467 67.0235 94.2467 75.6698C94.2467 84.3162 101.206 91.3256 109.791 91.3256C118.375 91.3256 125.335 84.3162 125.335 75.6698C125.335 67.0235 118.375 60.0141 109.791 60.0141Z" fill="#0088FF"/>
<path d="M77.0574 99.713C79.8506 99.713 82.1149 97.4324 82.1149 94.6192C82.1149 91.806 79.8506 89.5254 77.0574 89.5254C74.2643 89.5254 72 91.806 72 94.6192C72 97.4324 74.2643 99.713 77.0574 99.713Z" fill="#0088FF"/>
</svg>
