<svg width="16" height="16" viewBox="0 0 16 16" fill="none" xmlns="http://www.w3.org/2000/svg">
<path d="M11.4944 10.14C13.2088 9.18184 14.5198 8.45178 14.6319 8.39475C14.9904 8.20083 15.3602 7.68751 14.6319 7.28826C14.3966 7.16278 13.1304 6.45554 11.4944 5.54297L9.24219 7.84721L11.4944 10.14Z" fill="#A4A4AA"/>
<path d="M9.24059 7.84766L2.04688 15.2281C2.21495 15.2509 2.40544 15.2052 2.62954 15.0798C3.10016 14.8174 8.09766 12.0341 11.4928 10.1405L9.24059 7.84766Z" fill="#303033"/>
<path d="M9.24398 7.84744L11.4962 5.5432C11.4962 5.5432 3.13717 0.900502 2.63294 0.626731C2.44245 0.51266 2.22955 0.478439 2.03906 0.51266L9.24398 7.84744Z" fill="#78787E"/>
<path d="M9.24277 7.8465L2.03785 0.511719C1.74651 0.580161 1.5 0.842526 1.5 1.37866C1.5 2.23419 1.5 13.6413 1.5 14.36C1.5 14.8505 1.69049 15.2041 2.04905 15.2383L9.24277 7.8465Z" fill="#59595E"/>
</svg>
