<svg width="16" height="16" viewBox="0 0 16 16" fill="none" xmlns="http://www.w3.org/2000/svg">
<path d="M11.4944 10.14C13.2088 9.18184 14.5198 8.45178 14.6319 8.39475C14.9904 8.20083 15.3602 7.68751 14.6319 7.28826C14.3966 7.16278 13.1304 6.45554 11.4944 5.54297L9.24219 7.84721L11.4944 10.14Z" fill="#E4E4E9"/>
<path d="M9.24059 7.84766L2.04688 15.2281C2.21495 15.2509 2.40544 15.2052 2.62954 15.0798C3.10016 14.8174 8.09766 12.0341 11.4928 10.1405L9.24059 7.84766Z" fill="white"/>
<path d="M9.24398 7.84744L11.4962 5.5432C11.4962 5.5432 3.13717 0.900502 2.63294 0.626731C2.44245 0.51266 2.22955 0.478439 2.03906 0.51266L9.24398 7.84744Z" fill="#C9C9D7"/>
<path d="M9.24277 7.84747L2.03785 0.512695C1.74651 0.581138 1.5 0.843502 1.5 1.37964C1.5 2.23517 1.5 13.6423 1.5 14.3609C1.5 14.8514 1.69049 15.2051 2.04905 15.2393L9.24277 7.84747Z" fill="#B8B8C0"/>
</svg>
