<svg width="16" height="16" viewBox="0 0 16 16" fill="none" xmlns="http://www.w3.org/2000/svg">
<path d="M13.4705 5.61401C13.3824 5.68152 11.827 6.54711 11.827 8.4718C11.827 10.698 13.8062 11.4856 13.8654 11.5051C13.8563 11.5531 13.551 12.5837 12.8219 13.6338C12.1718 14.5579 11.4929 15.4805 10.46 15.4805C9.42716 15.4805 9.16135 14.8879 7.96901 14.8879C6.80705 14.8879 6.39391 15.5 5.44915 15.5C4.50439 15.5 3.84519 14.6449 3.08725 13.5948C2.20933 12.3617 1.5 10.446 1.5 8.62781C1.5 5.71152 3.41989 4.16487 5.30941 4.16487C6.31341 4.16487 7.15032 4.81593 7.78067 4.81593C8.38063 4.81593 9.31628 4.12586 10.4585 4.12586C10.8914 4.12586 12.4467 4.16487 13.4705 5.61401ZM9.91624 2.89124C10.3886 2.33768 10.7228 1.56961 10.7228 0.80153C10.7228 0.69502 10.7137 0.587009 10.6939 0.5C9.92536 0.528503 9.01098 1.00555 8.45962 1.63711C8.02673 2.12316 7.6227 2.89124 7.6227 3.66982C7.6227 3.78683 7.64245 3.90384 7.65156 3.94134C7.70016 3.95034 7.77915 3.96085 7.85813 3.96085C8.54771 3.96085 9.41501 3.5048 9.91624 2.89124Z" fill="#303033"/>
</svg>
