<svg width="80" height="80" viewBox="0 0 80 80" fill="none" xmlns="http://www.w3.org/2000/svg">
<path d="M62.8549 47.733C62.8549 58.1901 58.074 70.4758 39.9978 70.4758C37.4123 70.5 34.8339 70.2032 32.3216 69.592M25.613 66.6168C19.1749 62.1596 17.1406 54.552 17.1406 47.733V32.3806C17.1406 26.4149 19.6359 21.0282 23.6359 17.2149M30.0054 12.0568C33.0732 10.3933 36.508 9.52255 39.9978 9.52344C46.6759 9.52344 53.3044 12.2777 57.1406 17.1425M61.7349 21.7901C62.4587 23.9196 62.8549 26.1977 62.8549 28.5711V39.9996" stroke="#0088FF" stroke-width="4" stroke-linecap="round" stroke-linejoin="round"/>
<path d="M39.9959 62.8569C34.9165 60.3172 32.3769 56.5458 32.3769 51.5426V32.3807C32.3769 30.36 33.1796 28.422 34.6084 26.9932C36.0373 25.5643 37.9752 24.7616 39.9959 24.7616C42.0166 24.7616 43.9545 25.5643 45.3834 26.9932C46.8122 28.422 47.615 30.36 47.615 32.3807V47.7331C47.615 50.2727 48.8848 51.5426 51.4245 51.5426C55.234 51.5426 55.234 50.274 55.234 47.7331V30.7273C55.2341 28.9899 54.838 27.2754 54.0759 25.714C51.2873 19.9997 46.594 17.1426 39.9959 17.1426C33.3978 17.1426 28.7045 19.9997 25.9159 25.714C25.1538 27.2754 24.7578 28.9899 24.7578 30.7273V51.4283C24.7578 55.2378 25.3927 57.7775 26.6626 59.0473" stroke="#0088FF" stroke-width="4" stroke-linecap="round" stroke-linejoin="round"/>
<path d="M40 32.3809V47.7332C40 55.2761 43.8095 59.0475 51.4286 59.0475" stroke="#0088FF" stroke-width="4" stroke-linecap="round" stroke-linejoin="round"/>
</svg>
