<svg width="80" height="80" viewBox="0 0 80 80" fill="none" xmlns="http://www.w3.org/2000/svg">
<path d="M13.3359 26.6663V19.9997C13.3359 18.2316 14.0383 16.5359 15.2886 15.2856C16.5388 14.0354 18.2345 13.333 20.0026 13.333H26.6693M13.3359 53.333V59.9997C13.3359 61.7678 14.0383 63.4635 15.2886 64.7137C16.5388 65.964 18.2345 66.6663 20.0026 66.6663H26.6693M53.3359 13.333H60.0026C61.7707 13.333 63.4664 14.0354 64.7167 15.2856C65.9669 16.5359 66.6693 18.2316 66.6693 19.9997V26.6663M53.3359 66.6663H60.0026C61.7707 66.6663 63.4664 65.964 64.7167 64.7137C65.9669 63.4635 66.6693 61.7678 66.6693 59.9997V53.333M40.0026 39.9997H39.9693M23.3359 39.9997C34.447 24.4441 45.5582 24.4441 56.6693 39.9997C45.5582 55.5552 34.447 55.5552 23.3359 39.9997Z" stroke="#0088FF" stroke-width="4" stroke-linecap="round" stroke-linejoin="round"/>
</svg>
