<svg width="80" height="80" viewBox="0 0 80 80" fill="none" xmlns="http://www.w3.org/2000/svg">
<path fill-rule="evenodd" clip-rule="evenodd" d="M17.4614 28.2549H41.5884C43.1881 28.2549 44.7223 28.8904 45.8535 30.0215C46.9847 31.1527 47.6202 32.6869 47.6202 34.2866V64.4454C47.6202 66.0451 46.9847 67.5793 45.8535 68.7104C44.7223 69.8416 43.1881 70.4771 41.5884 70.4771H17.4614C15.8617 70.4771 14.3275 69.8416 13.1963 68.7104C12.0652 67.5793 11.4297 66.0451 11.4297 64.4454V34.2866C11.4297 32.6869 12.0652 31.1527 13.1963 30.0215C14.3275 28.8904 15.8617 28.2549 17.4614 28.2549Z" stroke="#0088FF" stroke-width="4" stroke-linecap="round" stroke-linejoin="round"/>
<path d="M40.6884 70.4771L29.6956 64.6022C28.7323 64.0872 27.927 63.3202 27.3656 62.3833C26.8041 61.4463 26.5077 60.3745 26.5078 59.2822V39.4498C26.5077 38.3575 26.8041 37.2857 27.3656 36.3487C27.927 35.4117 28.7323 34.6448 29.6956 34.1298L40.6884 28.2549" stroke="#0088FF" stroke-width="4" stroke-linecap="round" stroke-linejoin="round"/>
<path d="M32.5393 52.3814C34.2049 52.3814 35.5552 51.0311 35.5552 49.3655C35.5552 47.6999 34.2049 46.3496 32.5393 46.3496C30.8737 46.3496 29.5234 47.6999 29.5234 49.3655C29.5234 51.0311 30.8737 52.3814 32.5393 52.3814Z" fill="#0088FF"/>
<path d="M50.8946 6.99308C60.7989 8.40797 68.3449 15.9541 69.7598 25.8583M49.9514 13.5959C56.5542 14.5392 62.2138 20.1987 63.157 26.8016M49.9514 20.1987C53.3943 21.0005 55.7524 23.3587 56.5542 26.8016" stroke="#0088FF" stroke-width="4" stroke-linecap="round" stroke-linejoin="round"/>
</svg>
