<svg width="42" height="42" viewBox="0 0 42 42" fill="none" xmlns="http://www.w3.org/2000/svg">
<rect width="42" height="42" rx="21" fill="white"/>
<path fill-rule="evenodd" clip-rule="evenodd" d="M23.7656 15.5824C21.5987 15.5824 19.6167 16.3745 18.0934 17.6848V9L15.0625 9V24.6327H15.0704C15.2532 29.2773 19.0762 32.9865 23.7656 32.9865C28.5716 32.9865 32.4676 29.0905 32.4676 24.2845C32.4676 19.4785 28.5716 15.5824 23.7656 15.5824ZM23.7445 18.6674C20.6228 18.6674 18.0922 21.1981 18.0922 24.3198C18.0922 27.4414 20.6228 29.9721 23.7445 29.9721C26.8663 29.9721 29.3968 27.4414 29.3968 24.3198C29.3968 21.1981 26.8663 18.6674 23.7445 18.6674Z" fill="#0088FF"/>
<path d="M11.8391 32.9994C12.8547 32.9994 13.6781 32.176 13.6781 31.1603C13.6781 30.1447 12.8547 29.3213 11.8391 29.3213C10.8234 29.3213 10 30.1447 10 31.1603C10 32.176 10.8234 32.9994 11.8391 32.9994Z" fill="#0088FF"/>
</svg>
